# xmcd
#
# Track frame offsets: 
#        150
#        21583
#        42593
#        66796
#        85591
#        103868
#        124315
#        146643
#        174626
#        198413
#        223537
#        251932
#
# Disc length: 3633 seconds
#
# Revision: 0
# Processed by: cddbd v1.5.2PL0 Copyright (c) Steve Scherf et al.
# Submitted via: ExactAudioCopy v0.99pb4
#
DISCID=bb0e2f0c
DTITLE=Various Artist - Guitar Trinh Cong Son
DYEAR=1900
DGENRE=Blues
TTITLE0=Nang Thuy Tinh
TTITLE1=Con Tuoi Nao Cho Em
TTITLE2=Tinh Sau
TTITLE3=Loi Buon Thanh
TTITLE4=Dem Thay Ta La Thac Do
TTITLE5=Nho Mua Thu Ha Noi
TTITLE6=Chiec La Thu Phai
TTITLE7=Uot Mi
TTITLE8=Nhu CAnh Vac Bay
TTITLE9=Lang Le Noi Nay
TTITLE10=Tinh Xa
TTITLE11=Quynh Huong
EXTD=
EXTT0=
EXTT1=
EXTT2=
EXTT3=
EXTT4=
EXTT5=
EXTT6=
EXTT7=
EXTT8=
EXTT9=
EXTT10=
EXTT11=
PLAYORDER=
